<svg xmlns="http://www.w3.org/2000/svg" width="1200" height="1500" viewBox="0 0 1200 1500">
  <defs>
    <linearGradient id="bg" x1="0" y1="0" x2="1" y2="1">
      <stop offset="0" stop-color="#0b1f3a"/>
      <stop offset="0.45" stop-color="#4c1d95"/>
      <stop offset="1" stop-color="#0e7490"/>
    </linearGradient>
    <radialGradient id="glow" cx="50%" cy="20%" r="70%">
      <stop offset="0" stop-color="rgba(255,255,255,0.22)"/>
      <stop offset="1" stop-color="rgba(255,255,255,0)"/>
    </radialGradient>
    <filter id="blur" x="-20%" y="-20%" width="140%" height="140%">
      <feGaussianBlur stdDeviation="46"/>
    </filter>
  </defs>

  <rect width="1200" height="1500" fill="url(#bg)"/>
  <circle cx="260" cy="340" r="280" fill="rgba(245,195,68,0.22)" filter="url(#blur)"/>
  <circle cx="980" cy="1160" r="340" fill="rgba(139,92,246,0.18)" filter="url(#blur)"/>
  <rect width="1200" height="1500" fill="url(#glow)"/>

  <g transform="translate(0, 0)" opacity="0.95">
    <path
      d="M600 780c155 0 280-125 280-280S755 220 600 220 320 345 320 500s125 280 280 280z"
      fill="rgba(255,255,255,0.16)"
    />
    <path
      d="M220 1330c0-220 170-398 380-398h0c210 0 380 178 380 398v70H220v-70z"
      fill="rgba(255,255,255,0.14)"
    />
  </g>

  <rect x="80" y="80" width="1040" height="1340" rx="64" fill="rgba(255,255,255,0.04)" stroke="rgba(255,255,255,0.10)"/>
  <text x="120" y="1320" fill="rgba(255,255,255,0.78)" font-family="ui-sans-serif, system-ui, -apple-system, Segoe UI, Roboto, Arial" font-size="26">
    Add a pastor photo at /public/photos/pastor/pastor-mano.jpg
  </text>
</svg>
