<svg xmlns="http://www.w3.org/2000/svg" width="1600" height="900" viewBox="0 0 1600 900" role="img" aria-label="Holiday event">
  <defs>
    <linearGradient id="bg" x1="0" y1="0" x2="1" y2="1">
      <stop offset="0" stop-color="#1a2744"/>
      <stop offset="0.55" stop-color="#7c3aed"/>
      <stop offset="1" stop-color="#2563eb"/>
    </linearGradient>
    <radialGradient id="glow" cx="35%" cy="25%" r="70%">
      <stop offset="0" stop-color="#ffffff" stop-opacity="0.2"/>
      <stop offset="0.6" stop-color="#ffffff" stop-opacity="0"/>
      <stop offset="1" stop-color="#ffffff" stop-opacity="0"/>
    </radialGradient>
    <linearGradient id="accent" x1="0" y1="0" x2="1" y2="0">
      <stop offset="0" stop-color="#f5c344"/>
      <stop offset="1" stop-color="#8b5cf6"/>
    </linearGradient>
  </defs>

  <rect width="1600" height="900" fill="url(#bg)"/>
  <rect width="1600" height="900" fill="url(#glow)"/>

  <path d="M0 780 C 320 660, 520 980, 880 820 C 1180 690, 1360 760, 1600 640 L1600 900 L0 900 Z" fill="#ffffff" opacity="0.08"/>
  <path d="M0 860 C 380 720, 640 990, 1010 840 C 1280 730, 1450 805, 1600 700 L1600 900 L0 900 Z" fill="#ffffff" opacity="0.06"/>

  <g transform="translate(1200 200)" opacity="0.95">
    <circle cx="0" cy="0" r="160" fill="#000000" opacity="0.18"/>
    <circle cx="0" cy="0" r="160" fill="none" stroke="url(#accent)" stroke-width="10" opacity="0.85"/>
    <g fill="none" stroke="#ffffff" stroke-linecap="round" stroke-linejoin="round" opacity="0.92">
      <path d="M0 -90 L24 -20 L96 -20 L38 22 L58 90 L0 52 L-58 90 L-38 22 L-96 -20 L-24 -20 Z" stroke-width="10"/>
      <path d="M0 -115 V-95" stroke-width="10"/>
      <path d="M0 95 V115" stroke-width="10"/>
      <path d="M-115 0 H-95" stroke-width="10"/>
      <path d="M95 0 H115" stroke-width="10"/>
    </g>
  </g>

  <g transform="translate(110 110)" opacity="0.95">
    <rect x="0" y="0" width="520" height="120" rx="60" fill="#000000" opacity="0.18"/>
    <rect x="0" y="0" width="520" height="120" rx="60" fill="none" stroke="#ffffff" stroke-opacity="0.18" stroke-width="2"/>
    <text x="38" y="76" fill="#ffffff" font-family="ui-sans-serif, system-ui, -apple-system, Segoe UI, Roboto, Arial" font-size="44" font-weight="800" letter-spacing="0.04em">
      HOLIDAY
    </text>
  </g>
</svg>
