<svg xmlns="http://www.w3.org/2000/svg" width="1600" height="900" viewBox="0 0 1600 900" role="img" aria-label="Prayer event">
  <defs>
    <linearGradient id="bg" x1="0" y1="0" x2="1" y2="1">
      <stop offset="0" stop-color="#1a2744"/>
      <stop offset="0.55" stop-color="#5b21b6"/>
      <stop offset="1" stop-color="#0e7490"/>
    </linearGradient>
    <radialGradient id="glow" cx="35%" cy="25%" r="70%">
      <stop offset="0" stop-color="#ffffff" stop-opacity="0.18"/>
      <stop offset="0.6" stop-color="#ffffff" stop-opacity="0"/>
      <stop offset="1" stop-color="#ffffff" stop-opacity="0"/>
    </radialGradient>
    <linearGradient id="accent" x1="0" y1="0" x2="1" y2="0">
      <stop offset="0" stop-color="#f5c344"/>
      <stop offset="1" stop-color="#8b5cf6"/>
    </linearGradient>
  </defs>

  <rect width="1600" height="900" fill="url(#bg)"/>
  <rect width="1600" height="900" fill="url(#glow)"/>

  <path d="M0 780 C 320 660, 520 980, 860 820 C 1140 690, 1320 760, 1600 640 L1600 900 L0 900 Z" fill="#ffffff" opacity="0.08"/>
  <path d="M0 860 C 360 730, 600 990, 980 840 C 1260 730, 1410 800, 1600 700 L1600 900 L0 900 Z" fill="#ffffff" opacity="0.06"/>

  <g transform="translate(1200 190)" opacity="0.95">
    <circle cx="0" cy="0" r="160" fill="#000000" opacity="0.18"/>
    <circle cx="0" cy="0" r="160" fill="none" stroke="url(#accent)" stroke-width="10" opacity="0.85"/>
    <path d="M-40 -70 L-40 70 M-90 0 L10 0" stroke="#ffffff" stroke-width="18" stroke-linecap="round" opacity="0.9"/>
    <path d="M45 -55 C 80 -35, 92 10, 70 40 C 55 60, 30 70, 5 66" fill="none" stroke="#ffffff" stroke-width="12" stroke-linecap="round" opacity="0.9"/>
  </g>

  <g transform="translate(110 110)" opacity="0.95">
    <rect x="0" y="0" width="520" height="120" rx="60" fill="#000000" opacity="0.18"/>
    <rect x="0" y="0" width="520" height="120" rx="60" fill="none" stroke="#ffffff" stroke-opacity="0.18" stroke-width="2"/>
    <text x="38" y="76" fill="#ffffff" font-family="ui-sans-serif, system-ui, -apple-system, Segoe UI, Roboto, Arial" font-size="44" font-weight="800" letter-spacing="0.04em">
      PRAYER NIGHT
    </text>
  </g>
</svg>
