<svg xmlns="http://www.w3.org/2000/svg" width="1600" height="900" viewBox="0 0 1600 900" role="img" aria-label="Family event">
  <defs>
    <linearGradient id="bg" x1="0" y1="0" x2="1" y2="1">
      <stop offset="0" stop-color="#1a2744"/>
      <stop offset="0.55" stop-color="#0e7490"/>
      <stop offset="1" stop-color="#2563eb"/>
    </linearGradient>
    <radialGradient id="glow" cx="35%" cy="25%" r="70%">
      <stop offset="0" stop-color="#ffffff" stop-opacity="0.18"/>
      <stop offset="0.6" stop-color="#ffffff" stop-opacity="0"/>
      <stop offset="1" stop-color="#ffffff" stop-opacity="0"/>
    </radialGradient>
    <linearGradient id="accent" x1="0" y1="0" x2="1" y2="0">
      <stop offset="0" stop-color="#f5c344"/>
      <stop offset="1" stop-color="#3b82f6"/>
    </linearGradient>
  </defs>

  <rect width="1600" height="900" fill="url(#bg)"/>
  <rect width="1600" height="900" fill="url(#glow)"/>

  <path d="M0 780 C 320 660, 520 980, 880 820 C 1180 690, 1360 760, 1600 640 L1600 900 L0 900 Z" fill="#ffffff" opacity="0.08"/>
  <path d="M0 860 C 380 720, 640 990, 1010 840 C 1280 730, 1450 805, 1600 700 L1600 900 L0 900 Z" fill="#ffffff" opacity="0.06"/>

  <g transform="translate(1200 200)" opacity="0.95">
    <circle cx="0" cy="0" r="160" fill="#000000" opacity="0.18"/>
    <circle cx="0" cy="0" r="160" fill="none" stroke="url(#accent)" stroke-width="10" opacity="0.85"/>
    <g fill="#ffffff" opacity="0.92">
      <circle cx="-55" cy="-10" r="30"/>
      <circle cx="55" cy="-10" r="30"/>
      <circle cx="0" cy="-45" r="22"/>
      <path d="M-120 120 C-105 65,-75 45,-55 45 C-20 45,-10 80,-10 105 C-10 125,-25 140,-55 145 C-85 140,-110 130,-120 120 Z"/>
      <path d="M10 105 C10 80,20 45,55 45 C75 45,105 65,120 120 C110 130,85 140,55 145 C25 140,10 125,10 105 Z"/>
      <path d="M-15 135 C-10 100,-2 90,0 90 C2 90,10 100,15 135 C10 150,5 155,0 156 C-5 155,-10 150,-15 135 Z"/>
    </g>
  </g>

  <g transform="translate(110 110)" opacity="0.95">
    <rect x="0" y="0" width="470" height="120" rx="60" fill="#000000" opacity="0.18"/>
    <rect x="0" y="0" width="470" height="120" rx="60" fill="none" stroke="#ffffff" stroke-opacity="0.18" stroke-width="2"/>
    <text x="38" y="76" fill="#ffffff" font-family="ui-sans-serif, system-ui, -apple-system, Segoe UI, Roboto, Arial" font-size="44" font-weight="800" letter-spacing="0.04em">
      FAMILY
    </text>
  </g>
</svg>
